<?xml version="1.0" ?><svg viewBox="0 0 64 64" xmlns="http://www.w3.org/2000/svg"><g id="Winner"><path d="M40.5483,8.1751H36.97a1.9436,1.9436,0,0,1-1.8482-1.3426L34.0161,3.4291a1.9431,1.9431,0,0,0-3.696,0L29.2143,6.8325a1.9434,1.9434,0,0,1-1.8481,1.3426H23.7878A1.9432,1.9432,0,0,0,22.6457,11.69l2.8951,2.1032a1.9433,1.9433,0,0,1,.7058,2.1724l-1.1057,3.4033a1.9431,1.9431,0,0,0,2.99,2.1726l2.8949-2.1035a1.944,1.944,0,0,1,2.2844,0l2.895,2.1035a1.9431,1.9431,0,0,0,2.99-2.1726L38.09,15.966a1.9433,1.9433,0,0,1,.7058-2.1724L41.69,11.69A1.9432,1.9432,0,0,0,40.5483,8.1751Z"/><path d="M26.94,27.1362H36.907a2.48,2.48,0,0,1,2.48,2.48V58.3334a2.4795,2.4795,0,0,1-2.4795,2.4795H26.9411a2.48,2.48,0,0,1-2.48-2.48V29.6157A2.4795,2.4795,0,0,1,26.94,27.1362Z"/><path d="M6.5935,35.8442H16.56A2.4795,2.4795,0,0,1,19.04,38.3237v20.01a2.48,2.48,0,0,1-2.48,2.48H6.5945a2.48,2.48,0,0,1-2.48-2.48v-20.01A2.4795,2.4795,0,0,1,6.5935,35.8442Z"/><path d="M47.2878,35.8442h9.9668a2.48,2.48,0,0,1,2.48,2.48V58.3334a2.48,2.48,0,0,1-2.48,2.48H47.2888a2.48,2.48,0,0,1-2.48-2.48v-20.01A2.4795,2.4795,0,0,1,47.2878,35.8442Z"/></g></svg>